<?xml version="1.0" encoding="UTF-8" standalone="no"?>
<!DOCTYPE svg PUBLIC "-//W3C//DTD SVG 1.1//EN"
 "http://www.w3.org/Graphics/SVG/1.1/DTD/svg11.dtd">
<!-- Generated by graphviz version 14.0.2 (20251019.1705)
 -->
<!-- Pages: 1 -->
<svg width="690pt" height="126pt"
 viewBox="0.00 0.00 690.00 126.00" xmlns="http://www.w3.org/2000/svg" xmlns:xlink="http://www.w3.org/1999/xlink">
<g id="graph0" class="graph" transform="scale(1 1) rotate(0) translate(4 122)">
<polygon fill="white" stroke="none" points="-4,4 -4,-122 685.5,-122 685.5,4 -4,4"/>
<!-- 1 -->
<g id="node1" class="node">
<title>1</title>
<path fill="#ff9933" stroke="black" d="M384.62,-118C384.62,-118 284.62,-118 284.62,-118 278.62,-118 272.62,-112 272.62,-106 272.62,-106 272.62,-89 272.62,-89 272.62,-83 278.62,-77 284.62,-77 284.62,-77 384.62,-77 384.62,-77 390.62,-77 396.62,-83 396.62,-89 396.62,-89 396.62,-106 396.62,-106 396.62,-112 390.62,-118 384.62,-118"/>
<text xml:space="preserve" text-anchor="middle" x="334.62" y="-100.7" font-family="Times New Roman,serif" font-size="14.00">Army Headquarters</text>
<text xml:space="preserve" text-anchor="middle" x="334.62" y="-84.2" font-family="Times New Roman,serif" font-size="14.00">(Oberkommando)</text>
</g>
<!-- 6 -->
<g id="node2" class="node">
<title>6</title>
<path fill="#ffffff" stroke="black" d="M105.25,-41C105.25,-41 12,-41 12,-41 6,-41 0,-35 0,-29 0,-29 0,-12 0,-12 0,-6 6,0 12,0 12,0 105.25,0 105.25,0 111.25,0 117.25,-6 117.25,-12 117.25,-12 117.25,-29 117.25,-29 117.25,-35 111.25,-41 105.25,-41"/>
<text xml:space="preserve" text-anchor="middle" x="58.62" y="-23.7" font-family="Times New Roman,serif" font-size="14.00">Central Command</text>
<text xml:space="preserve" text-anchor="middle" x="58.62" y="-7.2" font-family="Times New Roman,serif" font-size="14.00">(Kommando)</text>
</g>
<!-- 1&#45;&gt;6 -->
<g id="edge1" class="edge">
<title>1&#45;&gt;6</title>
<path fill="none" stroke="black" d="M272.2,-80.17C233.43,-69.95 182.3,-56.34 128.39,-41.47"/>
<polygon fill="black" stroke="black" points="129.61,-38.17 119.04,-38.88 127.74,-44.92 129.61,-38.17"/>
</g>
<!-- 4 -->
<g id="node3" class="node">
<title>4</title>
<path fill="#ffffff" stroke="black" d="M241.62,-41C241.62,-41 147.62,-41 147.62,-41 141.62,-41 135.62,-35 135.62,-29 135.62,-29 135.62,-12 135.62,-12 135.62,-6 141.62,0 147.62,0 147.62,0 241.62,0 241.62,0 247.62,0 253.62,-6 253.62,-12 253.62,-12 253.62,-29 253.62,-29 253.62,-35 247.62,-41 241.62,-41"/>
<text xml:space="preserve" text-anchor="middle" x="194.62" y="-23.7" font-family="Times New Roman,serif" font-size="14.00">Eastern Command</text>
<text xml:space="preserve" text-anchor="middle" x="194.62" y="-7.2" font-family="Times New Roman,serif" font-size="14.00">(Kommando)</text>
</g>
<!-- 1&#45;&gt;4 -->
<g id="edge2" class="edge">
<title>1&#45;&gt;4</title>
<path fill="none" stroke="black" d="M297.48,-76.6C280.47,-67.49 260.11,-56.58 242.02,-46.89"/>
<polygon fill="black" stroke="black" points="243.75,-43.85 233.28,-42.21 240.44,-50.02 243.75,-43.85"/>
</g>
<!-- 2 -->
<g id="node4" class="node">
<title>2</title>
<path fill="#ffffff" stroke="black" d="M385.75,-41C385.75,-41 283.5,-41 283.5,-41 277.5,-41 271.5,-35 271.5,-29 271.5,-29 271.5,-12 271.5,-12 271.5,-6 277.5,0 283.5,0 283.5,0 385.75,0 385.75,0 391.75,0 397.75,-6 397.75,-12 397.75,-12 397.75,-29 397.75,-29 397.75,-35 391.75,-41 385.75,-41"/>
<text xml:space="preserve" text-anchor="middle" x="334.62" y="-23.7" font-family="Times New Roman,serif" font-size="14.00">Northern Command</text>
<text xml:space="preserve" text-anchor="middle" x="334.62" y="-7.2" font-family="Times New Roman,serif" font-size="14.00">(Kommando)</text>
</g>
<!-- 1&#45;&gt;2 -->
<g id="edge3" class="edge">
<title>1&#45;&gt;2</title>
<path fill="none" stroke="black" d="M334.62,-76.79C334.62,-69.45 334.62,-60.91 334.62,-52.78"/>
<polygon fill="black" stroke="black" points="338.13,-52.85 334.63,-42.85 331.13,-52.85 338.13,-52.85"/>
</g>
<!-- 5 -->
<g id="node5" class="node">
<title>5</title>
<path fill="#ffffff" stroke="black" d="M529.75,-41C529.75,-41 427.5,-41 427.5,-41 421.5,-41 415.5,-35 415.5,-29 415.5,-29 415.5,-12 415.5,-12 415.5,-6 421.5,0 427.5,0 427.5,0 529.75,0 529.75,0 535.75,0 541.75,-6 541.75,-12 541.75,-12 541.75,-29 541.75,-29 541.75,-35 535.75,-41 529.75,-41"/>
<text xml:space="preserve" text-anchor="middle" x="478.62" y="-23.7" font-family="Times New Roman,serif" font-size="14.00">Southern Command</text>
<text xml:space="preserve" text-anchor="middle" x="478.62" y="-7.2" font-family="Times New Roman,serif" font-size="14.00">(Kommando)</text>
</g>
<!-- 1&#45;&gt;5 -->
<g id="edge4" class="edge">
<title>1&#45;&gt;5</title>
<path fill="none" stroke="black" d="M372.84,-76.6C390.41,-67.44 411.46,-56.48 430.14,-46.75"/>
<polygon fill="black" stroke="black" points="431.64,-49.92 438.89,-42.19 428.41,-43.71 431.64,-49.92"/>
</g>
<!-- 3 -->
<g id="node6" class="node">
<title>3</title>
<path fill="#ffffff" stroke="black" d="M669.5,-41C669.5,-41 571.75,-41 571.75,-41 565.75,-41 559.75,-35 559.75,-29 559.75,-29 559.75,-12 559.75,-12 559.75,-6 565.75,0 571.75,0 571.75,0 669.5,0 669.5,0 675.5,0 681.5,-6 681.5,-12 681.5,-12 681.5,-29 681.5,-29 681.5,-35 675.5,-41 669.5,-41"/>
<text xml:space="preserve" text-anchor="middle" x="620.62" y="-23.7" font-family="Times New Roman,serif" font-size="14.00">Western Command</text>
<text xml:space="preserve" text-anchor="middle" x="620.62" y="-7.2" font-family="Times New Roman,serif" font-size="14.00">(Kommando)</text>
</g>
<!-- 1&#45;&gt;3 -->
<g id="edge5" class="edge">
<title>1&#45;&gt;3</title>
<path fill="none" stroke="black" d="M397.1,-80.8C437.66,-70.53 491.96,-56.63 548.59,-41.52"/>
<polygon fill="black" stroke="black" points="549.34,-44.94 558.1,-38.98 547.53,-38.18 549.34,-44.94"/>
</g>
</g>
</svg>
